<svg xmlns="http://www.w3.org/2000/svg" version="1.1" xmlns:xlink="http://www.w3.org/1999/xlink" xmlns:svgjs="http://svgjs.dev/svgjs" width="1500" height="1143" viewBox="0 0 1500 1143"><g transform="matrix(1,0,0,1,0.589591143107441,0.46275303643722054)"><svg viewBox="0 0 324 247" data-background-color="#000000" preserveAspectRatio="xMidYMid meet" height="1143" width="1500" xmlns="http://www.w3.org/2000/svg" xmlns:xlink="http://www.w3.org/1999/xlink"><g id="tight-bounds" transform="matrix(1,0,0,1,-0.12735168691119725,-0.09999999999999432)"><svg viewBox="0 0 324.2547033738224 247.2" height="247.2" width="324.2547033738224"><g><svg viewBox="0 0 395.52 301.5300718314679" height="247.2" width="324.2547033738224"><g transform="matrix(1,0,0,1,0,186.35768117838228)"><svg viewBox="0 0 395.52 115.17239065308567" height="115.17239065308567" width="395.52"><g id="textblocktransform"><svg viewBox="0 0 395.52 115.17239065308567" height="115.17239065308567" width="395.52" id="textblock"><g><svg viewBox="0 0 395.52 115.17239065308567" height="115.17239065308567" width="395.52"><g transform="matrix(1,0,0,1,0,0)"><svg width="395.52" viewBox="2.25 -37 167.39 48.6" height="115.17239065308567" data-palette-color="url(#2bf2cef2-98a1-45a2-95fa-f7c038fddca9)"><g class="wordmark-text-0" data-fill-palette-color="primary" id="text-0"></g></svg></g></svg></g></svg></g></svg></g><g transform="matrix(1,0,0,1,118.17587805871777,0)"><svg viewBox="0 0 159.16824388256444 159.1682438825644" height="159.1682438825644" width="159.16824388256444"><g><svg xmlns="http://www.w3.org/2000/svg" xmlns:xlink="http://www.w3.org/1999/xlink" version="1.1" x="0" y="0" viewBox="0.5 0.5 47.1 47.099999999999994" enable-background="new 0 0 48 48" xml:space="preserve" height="159.1682438825644" width="159.16824388256444" class="icon-icon-0" data-fill-palette-color="accent" id="icon-0"></svg></g></svg></g><g></g></svg></g><defs></defs><mask id="4c3de9a2-271a-401f-b0d3-fcef83bfbab6"><g id="SvgjsG1448"><svg viewBox="0 0 324.2547033738224 247.2" height="247.2" width="324.2547033738224"><g><svg viewBox="0 0 395.52 301.5300718314679" height="247.2" width="324.2547033738224"><g transform="matrix(1,0,0,1,0,186.35768117838228)"><svg viewBox="0 0 395.52 115.17239065308567" height="115.17239065308567" width="395.52"><g id="SvgjsG1447"><svg viewBox="0 0 395.52 115.17239065308567" height="115.17239065308567" width="395.52" id="SvgjsSvg1446"><g><svg viewBox="0 0 395.52 115.17239065308567" height="115.17239065308567" width="395.52"><g transform="matrix(1,0,0,1,0,0)"><svg width="395.52" viewBox="2.25 -37 167.39 48.6" height="115.17239065308567" data-palette-color="url(#2bf2cef2-98a1-45a2-95fa-f7c038fddca9)"><g class="wordmark-text-0" data-fill-palette-color="primary" id="SvgjsG1445"><path d="M14.5 0.6L14.5 0.6Q10.8 0.6 8.03-1.13 5.25-2.85 3.75-5.93 2.25-9 2.25-13L2.25-13Q2.25-16.75 3.78-19.85 5.3-22.95 8.15-24.78 11-26.6 14.85-26.6L14.85-26.6Q17.05-26.6 18.73-26.2 20.4-25.8 21.95-25.05L21.95-25.05 20.6-21.25Q19.2-21.95 17.93-22.28 16.65-22.6 15.1-22.6L15.1-22.6Q11.6-22.6 9.22-20.08 6.85-17.55 6.85-13.1L6.85-13.1Q6.85-10.4 7.85-8.2 8.85-6 10.63-4.7 12.4-3.4 14.8-3.4L14.8-3.4Q16.7-3.4 18.05-3.83 19.4-4.25 20.95-5.05L20.95-5.05 22.35-1.25Q20.8-0.4 18.88 0.1 16.95 0.6 14.5 0.6ZM38.55 0.6L38.55 0.6Q34.85 0.6 31.9-1.13 28.95-2.85 27.27-5.93 25.6-9 25.6-13L25.6-13Q25.6-17.2 27.3-20.25 29-23.3 31.95-24.95 34.9-26.6 38.55-26.6L38.55-26.6Q42.2-26.6 45.12-24.95 48.05-23.3 49.77-20.28 51.5-17.25 51.5-13.1L51.5-13.1Q51.5-8.95 49.8-5.88 48.1-2.8 45.17-1.1 42.25 0.6 38.55 0.6ZM38.55-3.4L38.55-3.4Q42.5-3.4 44.7-6.08 46.9-8.75 46.9-13L46.9-13Q46.9-15.6 45.8-17.78 44.7-19.95 42.82-21.28 40.95-22.6 38.55-22.6L38.55-22.6Q34.6-22.6 32.4-20 30.2-17.4 30.2-13.1L30.2-13.1Q30.2-10.5 31.3-8.28 32.4-6.05 34.27-4.73 36.15-3.4 38.55-3.4ZM67.34 0.6L67.34 0.6Q64.15 0.6 61.5-1.05 58.85-2.7 57.3-5.73 55.75-8.75 55.75-12.85L55.75-12.85Q55.75-16.8 57.32-19.9 58.9-23 61.52-24.8 64.15-26.6 67.3-26.6L67.3-26.6Q69.9-26.6 71.77-25.55 73.65-24.5 74.7-23.4L74.7-23.4 74.7-37 79.2-37 79.2-6.3Q79.2-4.4 80.12-3.83 81.05-3.25 82.15-3.25L82.15-3.25 81.2 0.25Q76.45 0.25 75.4-3.55L75.4-3.55Q74.3-2 72.32-0.7 70.34 0.6 67.34 0.6ZM68.34-3.4L68.34-3.4Q70.2-3.4 71.87-4.28 73.55-5.15 74.7-6.55L74.7-6.55 74.7-19.45Q73.75-20.65 72.05-21.68 70.34-22.7 68.3-22.7L68.3-22.7Q65.9-22.7 64.09-21.4 62.3-20.1 61.32-17.93 60.35-15.75 60.35-13L60.35-13Q60.35-10.25 61.4-8.08 62.45-5.9 64.27-4.65 66.09-3.4 68.34-3.4ZM92.64 0L88.14 0 88.14-26 92.64-26 92.64 0ZM90.39-30.45L90.39-30.45Q89.09-30.45 88.17-31.4 87.24-32.35 87.24-33.6L87.24-33.6Q87.24-35.05 88.09-35.9 88.94-36.75 90.39-36.75L90.39-36.75Q91.69-36.75 92.62-35.83 93.54-34.9 93.54-33.6L93.54-33.6Q93.54-32.2 92.69-31.33 91.84-30.45 90.39-30.45ZM121.14-2.45L117.74 0.45 108.99-10.4 100.34 0.35 97.14-2.45 106.39-13.2 97.49-23.5 100.99-26.55 109.04-16.15 116.94-26.35 120.29-23.5 111.64-13.4 121.14-2.45ZM126.29 11.6L126.29 11.6Q124.79 11.6 123.66 11.3 122.54 11 121.89 10.6L121.89 10.6 122.89 6.85Q123.49 7.2 124.39 7.45 125.29 7.7 126.39 7.7L126.39 7.7Q128.49 7.7 130.14 6.35 131.79 5 133.29 1.05L133.29 1.05 134.44-1.95 132.04-1.95 121.89-24.8 125.89-26.6 135.59-4.95 143.14-26.4 147.29-24.8 137.74 1.3Q136.29 5.3 134.59 7.55 132.89 9.8 130.84 10.7 128.79 11.6 126.29 11.6ZM169.64 0L149.54 0 149.54-3.55 163.89-22.1 149.84-22.1 149.84-26 169.39-26 169.39-22.55 155.09-4 169.64-4 169.64 0Z" fill="white"></path></g></svg></g></svg></g></svg></g></svg></g><g transform="matrix(1,0,0,1,118.17587805871777,0)"><svg viewBox="0 0 159.16824388256444 159.1682438825644" height="159.1682438825644" width="159.16824388256444"><g><svg xmlns="http://www.w3.org/2000/svg" xmlns:xlink="http://www.w3.org/1999/xlink" version="1.1" x="0" y="0" viewBox="0.5 0.5 47.1 47.099999999999994" enable-background="new 0 0 48 48" xml:space="preserve" height="159.1682438825644" width="159.16824388256444" class="icon-icon-0" data-fill-palette-color="accent" id="SvgjsSvg1444"><g fill="black"><path d="M45.5 0.5H2.5c-1.1 0-2 0.9-2 2v10.8h47V2.5C47.5 1.4 46.6 0.5 45.5 0.5zM11.7 8.8c-1.1 0-2-0.9-2-1.9v0c0-1.1 0.9-2 2-2s2 0.9 2 2S12.7 8.8 11.7 8.8zM22.7 8.8c-1.1 0-2-0.9-2-1.9v0c0-1.1 0.9-2 2-2s2 0.9 2 2S23.8 8.8 22.7 8.8z" fill="black"></path><g fill="black"><path d="M24 28.4c-2.2 0-4 1.8-4 4s1.8 4 4 4 4-1.8 4-4S26.2 28.4 24 28.4z" fill="black"></path><path d="M0.5 17.2v28.4c0 1.1 0.9 2 2 2h43.1c1.1 0 2-0.9 2-2V17.2H0.5zM31.8 34.3h-0.2c-0.2 0.7-0.5 1.4-0.8 2l0.2 0.2c0.8 0.8 0.8 2 0 2.8-0.4 0.4-0.9 0.6-1.4 0.6-0.5 0-1-0.2-1.4-0.6L28 39.1c-0.6 0.4-1.3 0.7-2 0.8v0.2c0 1.1-0.9 2-2 2s-2-0.9-2-2v-0.2c-0.7-0.2-1.4-0.5-2-0.8l-0.2 0.2c-0.4 0.4-0.9 0.6-1.4 0.6-0.5 0-1-0.2-1.4-0.6-0.8-0.8-0.8-2 0-2.8l0.2-0.2c-0.4-0.6-0.7-1.3-0.8-2h-0.2c-1.1 0-2-0.9-2-2s0.9-2 2-2h0.2c0.2-0.7 0.5-1.4 0.8-2l-0.2-0.2c-0.8-0.8-0.8-2 0-2.8 0.8-0.8 2-0.8 2.8 0l0.2 0.2c0.6-0.4 1.3-0.7 2-0.8v-0.2c0-1.1 0.9-2 2-2s2 0.9 2 2v0.2c0.7 0.2 1.4 0.5 2 0.8l0.2-0.2c0.8-0.8 2-0.8 2.8 0 0.8 0.8 0.8 2 0 2.8l-0.2 0.2c0.4 0.6 0.7 1.3 0.8 2h0.2c1.1 0 2 0.9 2 2S32.9 34.3 31.8 34.3z" fill="black"></path></g></g></svg></g></svg></g><g></g></svg></g><defs><mask></mask></defs></svg><rect width="324.2547033738224" height="247.2" fill="black" stroke="none" visibility="hidden"></rect></g></mask><linearGradient x1="0.054" x2="0.941" y1="0.5" y2="0.5" id="2bf2cef2-98a1-45a2-95fa-f7c038fddca9"><stop stop-color="#864d25" offset="0"></stop><stop stop-color="#f1c4b3" offset="0.498"></stop><stop stop-color="#864d25" offset="1"></stop></linearGradient><rect width="324.2547033738224" height="247.2" fill="url(#2bf2cef2-98a1-45a2-95fa-f7c038fddca9)" mask="url(#4c3de9a2-271a-401f-b0d3-fcef83bfbab6)" data-fill-palette-color="primary"></rect><mask id="60555e26-242e-4683-a346-78a675c2db56"><g id="SvgjsG1469"><svg viewBox="0 0 324.2547033738224 247.2" height="247.2" width="324.2547033738224"><g><svg viewBox="0 0 395.52 301.5300718314679" height="247.2" width="324.2547033738224"><g transform="matrix(1,0,0,1,0,186.35768117838228)"><svg viewBox="0 0 395.52 115.17239065308567" height="115.17239065308567" width="395.52"><g id="SvgjsG1468"><svg viewBox="0 0 395.52 115.17239065308567" height="115.17239065308567" width="395.52" id="SvgjsSvg1467"><g><svg viewBox="0 0 395.52 115.17239065308567" height="115.17239065308567" width="395.52"><g transform="matrix(1,0,0,1,0,0)"><svg width="395.52" viewBox="2.25 -37 167.39 48.6" height="115.17239065308567" data-palette-color="url(#2bf2cef2-98a1-45a2-95fa-f7c038fddca9)"><g class="wordmark-text-0" data-fill-palette-color="primary" id="SvgjsG1466"></g></svg></g></svg></g></svg></g></svg></g><g transform="matrix(1,0,0,1,118.17587805871777,0)"><svg viewBox="0 0 159.16824388256444 159.1682438825644" height="159.1682438825644" width="159.16824388256444"><g><svg xmlns="http://www.w3.org/2000/svg" xmlns:xlink="http://www.w3.org/1999/xlink" version="1.1" x="0" y="0" viewBox="0.5 0.5 47.1 47.099999999999994" enable-background="new 0 0 48 48" xml:space="preserve" height="159.1682438825644" width="159.16824388256444" class="icon-icon-0" data-fill-palette-color="accent" id="SvgjsSvg1465"><g fill="white"><path d="M45.5 0.5H2.5c-1.1 0-2 0.9-2 2v10.8h47V2.5C47.5 1.4 46.6 0.5 45.5 0.5zM11.7 8.8c-1.1 0-2-0.9-2-1.9v0c0-1.1 0.9-2 2-2s2 0.9 2 2S12.7 8.8 11.7 8.8zM22.7 8.8c-1.1 0-2-0.9-2-1.9v0c0-1.1 0.9-2 2-2s2 0.9 2 2S23.8 8.8 22.7 8.8z" fill="white"></path><g fill="white"><path d="M24 28.4c-2.2 0-4 1.8-4 4s1.8 4 4 4 4-1.8 4-4S26.2 28.4 24 28.4z" fill="white"></path><path d="M0.5 17.2v28.4c0 1.1 0.9 2 2 2h43.1c1.1 0 2-0.9 2-2V17.2H0.5zM31.8 34.3h-0.2c-0.2 0.7-0.5 1.4-0.8 2l0.2 0.2c0.8 0.8 0.8 2 0 2.8-0.4 0.4-0.9 0.6-1.4 0.6-0.5 0-1-0.2-1.4-0.6L28 39.1c-0.6 0.4-1.3 0.7-2 0.8v0.2c0 1.1-0.9 2-2 2s-2-0.9-2-2v-0.2c-0.7-0.2-1.4-0.5-2-0.8l-0.2 0.2c-0.4 0.4-0.9 0.6-1.4 0.6-0.5 0-1-0.2-1.4-0.6-0.8-0.8-0.8-2 0-2.8l0.2-0.2c-0.4-0.6-0.7-1.3-0.8-2h-0.2c-1.1 0-2-0.9-2-2s0.9-2 2-2h0.2c0.2-0.7 0.5-1.4 0.8-2l-0.2-0.2c-0.8-0.8-0.8-2 0-2.8 0.8-0.8 2-0.8 2.8 0l0.2 0.2c0.6-0.4 1.3-0.7 2-0.8v-0.2c0-1.1 0.9-2 2-2s2 0.9 2 2v0.2c0.7 0.2 1.4 0.5 2 0.8l0.2-0.2c0.8-0.8 2-0.8 2.8 0 0.8 0.8 0.8 2 0 2.8l-0.2 0.2c0.4 0.6 0.7 1.3 0.8 2h0.2c1.1 0 2 0.9 2 2S32.9 34.3 31.8 34.3z" fill="white"></path></g></g></svg></g></svg></g><g></g></svg></g><defs><mask></mask></defs><mask><g id="SvgjsG1464"><svg viewBox="0 0 324.2547033738224 247.2" height="247.2" width="324.2547033738224"><g><svg viewBox="0 0 395.52 301.5300718314679" height="247.2" width="324.2547033738224"><g transform="matrix(1,0,0,1,0,186.35768117838228)"><svg viewBox="0 0 395.52 115.17239065308567" height="115.17239065308567" width="395.52"><g id="SvgjsG1463"><svg viewBox="0 0 395.52 115.17239065308567" height="115.17239065308567" width="395.52" id="SvgjsSvg1462"><g><svg viewBox="0 0 395.52 115.17239065308567" height="115.17239065308567" width="395.52"><g transform="matrix(1,0,0,1,0,0)"><svg width="395.52" viewBox="2.25 -37 167.39 48.6" height="115.17239065308567" data-palette-color="url(#2bf2cef2-98a1-45a2-95fa-f7c038fddca9)"><g class="wordmark-text-0" data-fill-palette-color="primary" id="SvgjsG1461"><path d="M14.5 0.6L14.5 0.6Q10.8 0.6 8.03-1.13 5.25-2.85 3.75-5.93 2.25-9 2.25-13L2.25-13Q2.25-16.75 3.78-19.85 5.3-22.95 8.15-24.78 11-26.6 14.85-26.6L14.85-26.6Q17.05-26.6 18.73-26.2 20.4-25.8 21.95-25.05L21.95-25.05 20.6-21.25Q19.2-21.95 17.93-22.28 16.65-22.6 15.1-22.6L15.1-22.6Q11.6-22.6 9.22-20.08 6.85-17.55 6.85-13.1L6.85-13.1Q6.85-10.4 7.85-8.2 8.85-6 10.63-4.7 12.4-3.4 14.8-3.4L14.8-3.4Q16.7-3.4 18.05-3.83 19.4-4.25 20.95-5.05L20.95-5.05 22.35-1.25Q20.8-0.4 18.88 0.1 16.95 0.6 14.5 0.6ZM38.55 0.6L38.55 0.6Q34.85 0.6 31.9-1.13 28.95-2.85 27.27-5.93 25.6-9 25.6-13L25.6-13Q25.6-17.2 27.3-20.25 29-23.3 31.95-24.95 34.9-26.6 38.55-26.6L38.55-26.6Q42.2-26.6 45.12-24.95 48.05-23.3 49.77-20.28 51.5-17.25 51.5-13.1L51.5-13.1Q51.5-8.95 49.8-5.88 48.1-2.8 45.17-1.1 42.25 0.6 38.55 0.6ZM38.55-3.4L38.55-3.4Q42.5-3.4 44.7-6.08 46.9-8.75 46.9-13L46.9-13Q46.9-15.6 45.8-17.78 44.7-19.95 42.82-21.28 40.95-22.6 38.55-22.6L38.55-22.6Q34.6-22.6 32.4-20 30.2-17.4 30.2-13.1L30.2-13.1Q30.2-10.5 31.3-8.28 32.4-6.05 34.27-4.73 36.15-3.4 38.55-3.4ZM67.34 0.6L67.34 0.6Q64.15 0.6 61.5-1.05 58.85-2.7 57.3-5.73 55.75-8.75 55.75-12.85L55.75-12.85Q55.75-16.8 57.32-19.9 58.9-23 61.52-24.8 64.15-26.6 67.3-26.6L67.3-26.6Q69.9-26.6 71.77-25.55 73.65-24.5 74.7-23.4L74.7-23.4 74.7-37 79.2-37 79.2-6.3Q79.2-4.4 80.12-3.83 81.05-3.25 82.15-3.25L82.15-3.25 81.2 0.25Q76.45 0.25 75.4-3.55L75.4-3.55Q74.3-2 72.32-0.7 70.34 0.6 67.34 0.6ZM68.34-3.4L68.34-3.4Q70.2-3.4 71.87-4.28 73.55-5.15 74.7-6.55L74.7-6.55 74.7-19.45Q73.75-20.65 72.05-21.68 70.34-22.7 68.3-22.7L68.3-22.7Q65.9-22.7 64.09-21.4 62.3-20.1 61.32-17.93 60.35-15.75 60.35-13L60.35-13Q60.35-10.25 61.4-8.08 62.45-5.9 64.27-4.65 66.09-3.4 68.34-3.4ZM92.64 0L88.14 0 88.14-26 92.64-26 92.64 0ZM90.39-30.45L90.39-30.45Q89.09-30.45 88.17-31.4 87.24-32.35 87.24-33.6L87.24-33.6Q87.24-35.05 88.09-35.9 88.94-36.75 90.39-36.75L90.39-36.75Q91.69-36.75 92.62-35.83 93.54-34.9 93.54-33.6L93.54-33.6Q93.54-32.2 92.69-31.33 91.84-30.45 90.39-30.45ZM121.14-2.45L117.74 0.45 108.99-10.4 100.34 0.35 97.14-2.45 106.39-13.2 97.49-23.5 100.99-26.55 109.04-16.15 116.94-26.35 120.29-23.5 111.64-13.4 121.14-2.45ZM126.29 11.6L126.29 11.6Q124.79 11.6 123.66 11.3 122.54 11 121.89 10.6L121.89 10.6 122.89 6.85Q123.49 7.2 124.39 7.45 125.29 7.7 126.39 7.7L126.39 7.7Q128.49 7.7 130.14 6.35 131.79 5 133.29 1.05L133.29 1.05 134.44-1.95 132.04-1.95 121.89-24.8 125.89-26.6 135.59-4.95 143.14-26.4 147.29-24.8 137.74 1.3Q136.29 5.3 134.59 7.55 132.89 9.8 130.84 10.7 128.79 11.6 126.29 11.6ZM169.64 0L149.54 0 149.54-3.55 163.89-22.1 149.84-22.1 149.84-26 169.39-26 169.39-22.55 155.09-4 169.64-4 169.64 0Z" fill="black"></path></g></svg></g></svg></g></svg></g></svg></g><g transform="matrix(1,0,0,1,118.17587805871777,0)"><svg viewBox="0 0 159.16824388256444 159.1682438825644" height="159.1682438825644" width="159.16824388256444"><g><svg xmlns="http://www.w3.org/2000/svg" xmlns:xlink="http://www.w3.org/1999/xlink" version="1.1" x="0" y="0" viewBox="0.5 0.5 47.1 47.099999999999994" enable-background="new 0 0 48 48" xml:space="preserve" height="159.1682438825644" width="159.16824388256444" class="icon-icon-0" data-fill-palette-color="accent" id="SvgjsSvg1460"><g fill="black"><path d="M45.5 0.5H2.5c-1.1 0-2 0.9-2 2v10.8h47V2.5C47.5 1.4 46.6 0.5 45.5 0.5zM11.7 8.8c-1.1 0-2-0.9-2-1.9v0c0-1.1 0.9-2 2-2s2 0.9 2 2S12.7 8.8 11.7 8.8zM22.7 8.8c-1.1 0-2-0.9-2-1.9v0c0-1.1 0.9-2 2-2s2 0.9 2 2S23.8 8.8 22.7 8.8z" fill="black"></path><g fill="black"><path d="M24 28.4c-2.2 0-4 1.8-4 4s1.8 4 4 4 4-1.8 4-4S26.2 28.4 24 28.4z" fill="black"></path><path d="M0.5 17.2v28.4c0 1.1 0.9 2 2 2h43.1c1.1 0 2-0.9 2-2V17.2H0.5zM31.8 34.3h-0.2c-0.2 0.7-0.5 1.4-0.8 2l0.2 0.2c0.8 0.8 0.8 2 0 2.8-0.4 0.4-0.9 0.6-1.4 0.6-0.5 0-1-0.2-1.4-0.6L28 39.1c-0.6 0.4-1.3 0.7-2 0.8v0.2c0 1.1-0.9 2-2 2s-2-0.9-2-2v-0.2c-0.7-0.2-1.4-0.5-2-0.8l-0.2 0.2c-0.4 0.4-0.9 0.6-1.4 0.6-0.5 0-1-0.2-1.4-0.6-0.8-0.8-0.8-2 0-2.8l0.2-0.2c-0.4-0.6-0.7-1.3-0.8-2h-0.2c-1.1 0-2-0.9-2-2s0.9-2 2-2h0.2c0.2-0.7 0.5-1.4 0.8-2l-0.2-0.2c-0.8-0.8-0.8-2 0-2.8 0.8-0.8 2-0.8 2.8 0l0.2 0.2c0.6-0.4 1.3-0.7 2-0.8v-0.2c0-1.1 0.9-2 2-2s2 0.9 2 2v0.2c0.7 0.2 1.4 0.5 2 0.8l0.2-0.2c0.8-0.8 2-0.8 2.8 0 0.8 0.8 0.8 2 0 2.8l-0.2 0.2c0.4 0.6 0.7 1.3 0.8 2h0.2c1.1 0 2 0.9 2 2S32.9 34.3 31.8 34.3z" fill="black"></path></g></g></svg></g></svg></g><g></g></svg></g><defs><mask></mask></defs></svg><rect width="324.2547033738224" height="247.2" fill="black" stroke="none" visibility="hidden"></rect></g></mask></svg><rect width="324.2547033738224" height="247.2" fill="black" stroke="none" visibility="hidden"></rect></g></mask><linearGradient x1="0.054" x2="0.941" y1="0.5" y2="0.5" id="1bfbf0d3-dd85-4e6d-a629-00e8061b54d4"><stop stop-color="#864d25" offset="0"></stop><stop stop-color="#f1c4b3" offset="0.498"></stop><stop stop-color="#864d25" offset="1"></stop></linearGradient><rect width="324.2547033738224" height="247.2" fill="url(#1bfbf0d3-dd85-4e6d-a629-00e8061b54d4)" mask="url(#60555e26-242e-4683-a346-78a675c2db56)" data-fill-palette-color="accent"></rect></svg><rect width="324.2547033738224" height="247.2" fill="none" stroke="none" visibility="hidden"></rect></g></svg></g></svg>